<svg width="29" height="28" viewBox="0 0 29 28" fill="none" xmlns="http://www.w3.org/2000/svg">
<path d="M25 26.5415H4C3.52167 26.5415 3.125 26.1448 3.125 25.6665C3.125 25.1882 3.52167 24.7915 4 24.7915H25C25.4783 24.7915 25.875 25.1882 25.875 25.6665C25.875 26.1448 25.4783 26.5415 25 26.5415Z" fill="#2991BB" fill-opacity="0.4"/>
<path d="M7.03333 9.77686H5.16667C4.525 9.77686 4 10.3019 4 10.9435V21.0002C4 21.6419 4.525 22.1669 5.16667 22.1669H7.03333C7.675 22.1669 8.2 21.6419 8.2 21.0002V10.9435C8.2 10.2902 7.675 9.77686 7.03333 9.77686Z" fill="#2991BB" fill-opacity="0.4"/>
<path d="M15.4334 6.05518H13.5667C12.925 6.05518 12.4 6.58018 12.4 7.22184V21.0002C12.4 21.6418 12.925 22.1668 13.5667 22.1668H15.4334C16.075 22.1668 16.6 21.6418 16.6 21.0002V7.22184C16.6 6.58018 16.075 6.05518 15.4334 6.05518Z" fill="#2991BB" fill-opacity="0.4"/>
<path d="M23.8333 2.3335H21.9667C21.325 2.3335 20.8 2.8585 20.8 3.50016V21.0002C20.8 21.6418 21.325 22.1668 21.9667 22.1668H23.8333C24.475 22.1668 25 21.6418 25 21.0002V3.50016C25 2.8585 24.475 2.3335 23.8333 2.3335Z" fill="#2991BB" fill-opacity="0.4"/>
</svg>
