<svg width="10" height="10" viewBox="0 0 10 10" fill="none" xmlns="http://www.w3.org/2000/svg">
<path d="M4.99998 0.833496C2.70415 0.833496 0.833313 2.70433 0.833313 5.00016C0.833313 7.296 2.70415 9.16683 4.99998 9.16683C7.29581 9.16683 9.16665 7.296 9.16665 5.00016C9.16665 2.70433 7.29581 0.833496 4.99998 0.833496ZM6.81248 6.48766C6.75415 6.58766 6.64998 6.64183 6.54165 6.64183C6.48748 6.64183 6.43331 6.62933 6.38331 6.596L5.09165 5.82516C4.77081 5.6335 4.53331 5.21266 4.53331 4.84183V3.1335C4.53331 2.96266 4.67498 2.821 4.84581 2.821C5.01665 2.821 5.15831 2.96266 5.15831 3.1335V4.84183C5.15831 4.99183 5.28331 5.21266 5.41248 5.28766L6.70415 6.0585C6.85415 6.146 6.90415 6.33766 6.81248 6.48766Z" fill="white" fill-opacity="0.54"/>
</svg>
