<svg width="29" height="28" viewBox="0 0 29 28" fill="none" xmlns="http://www.w3.org/2000/svg">
<path d="M14.5364 2.36963C12.2614 2.36963 10.1381 3.02296 8.35308 4.14296L16.3564 12.158L16.3681 8.9613C16.3681 8.48296 16.7648 8.0863 17.2431 8.0863C17.7331 8.0863 18.1181 8.48296 18.1181 8.9613L18.1064 14.2696C18.1064 14.6313 17.8848 14.9463 17.5581 15.0746C17.4531 15.1213 17.3364 15.1446 17.2314 15.1446C16.9981 15.1446 16.7764 15.0513 16.6131 14.888L7.05808 5.3213C7.01142 5.27463 6.97642 5.22796 6.94142 5.1813C4.44475 7.32796 2.86975 10.5013 2.86975 14.0363C2.86975 20.4763 8.09642 25.703 14.5364 25.703C16.8114 25.703 18.9348 25.0496 20.7198 23.9296L12.7164 15.9146L12.7048 19.1113C12.7048 19.5896 12.3081 19.9863 11.8298 19.9863C11.3398 19.9863 10.9548 19.5896 10.9548 19.1113L10.9664 13.803C10.9664 13.4413 11.1881 13.1263 11.5148 12.998C11.8298 12.858 12.2148 12.928 12.4598 13.1846L22.0148 22.7513C22.0614 22.798 22.0964 22.8446 22.1314 22.8913C24.6281 20.7446 26.2031 17.5713 26.2031 14.0363C26.2031 7.5963 20.9764 2.36963 14.5364 2.36963Z" fill="#2991BB" fill-opacity="0.4"/>
</svg>
