<svg width="29" height="28" viewBox="0 0 29 28" fill="none" xmlns="http://www.w3.org/2000/svg">
<path d="M20.9633 10.2782C22.8706 10.2782 24.4167 8.73214 24.4167 6.82491C24.4167 4.91769 22.8706 3.37158 20.9633 3.37158C19.0561 3.37158 17.51 4.91769 17.51 6.82491C17.51 8.73214 19.0561 10.2782 20.9633 10.2782Z" fill="#2991BB" fill-opacity="0.4"/>
<path d="M8.03665 10.2782C9.94387 10.2782 11.49 8.73214 11.49 6.82491C11.49 4.91769 9.94387 3.37158 8.03665 3.37158C6.12942 3.37158 4.58331 4.91769 4.58331 6.82491C4.58331 8.73214 6.12942 10.2782 8.03665 10.2782Z" fill="#2991BB" fill-opacity="0.4"/>
<path d="M20.9633 24.6283C22.8706 24.6283 24.4167 23.0822 24.4167 21.175C24.4167 19.2678 22.8706 17.7217 20.9633 17.7217C19.0561 17.7217 17.51 19.2678 17.51 21.175C17.51 23.0822 19.0561 24.6283 20.9633 24.6283Z" fill="#2991BB" fill-opacity="0.4"/>
<path d="M8.03665 24.6283C9.94387 24.6283 11.49 23.0822 11.49 21.175C11.49 19.2678 9.94387 17.7217 8.03665 17.7217C6.12942 17.7217 4.58331 19.2678 4.58331 21.175C4.58331 23.0822 6.12942 24.6283 8.03665 24.6283Z" fill="#2991BB" fill-opacity="0.4"/>
</svg>
